# xmcd
#
# Track frame offsets: 
#        150
#        20722
#        39817
#        56110
#        72907
#        86035
#        98480
#        123852
#        141202
#
# Disc length: 2152 seconds
#
# Revision: 1
# Processed by: cddbd v1.5.1PL0 Copyright (c) Steve Scherf et al.
# Submitted via: ExactAudioCopy v0.95b1
#
DISCID=73086609
DTITLE=Tower Of Power - Bump City
DYEAR=1972
DGENRE=R&B+Funk
TTITLE0=You Got to Funkifize
TTITLE1=What Happened To The World That Day?
TTITLE2=Flash In The Pan
TTITLE3=Gone (In Memory Of Jacqueline Mesquite)
TTITLE4=You Strike My Main Nerve
TTITLE5=Down To The Nightclub (Bump City)
TTITLE6=You're Still A Young Man
TTITLE7=Skating On Thin Ice
TTITLE8=Of The Earth
EXTD=(C) (P) 1972 Warner Bros. Records\n\nProduced by Ron Capone (for 
EXTD=Trans Maximus) and Tower of Power\n\nAll songs written by Stephen
EXTD=Kupka/Emilio Castillo except:\n4. Greg Adams, Skip Mesquite\n5. 
EXTD=Stephen Kupka, Emilio Castillo, Lenny Williams, L. Gordon\n6. Ste
EXTD=phen Kupka, Emilio Castillo, David Garibaldi\n\nTower of Power:\n
EXTD=Rick Stevens - lead vocals\nSkip Mesquite - 1st tenor sax, flute,
EXTD=vocals (lead vocal on "Gone"]\nEmilio Castillo - 2nd tenor sax, 
EXTD=vocals\nGreg Adams - trumpet, fluegelhorn (solo on "Gone"), frenc
EXTD=h horn, piano on "Gone", vocals\nStephen Kupka - baritone sax, vo
EXTD=cals\nMic Gillette - trumpet, trombone, frech horn, vocals\nWilli
EXTD=e James Fulton - guitar, vocals\nDavid Garibaldi - drums\nFrancis
EXTD=Rocco Prestia - bass\nBrent Byars - congas, vocals\n\nJay Spell 
EXTD=on piano and organ on 2,7,9\n\nMemphis Strings (arranged and cond
EXTD=ucted by Greg Adams) on 2,7,9
EXTT0=
EXTT1=
EXTT2=
EXTT3=
EXTT4=
EXTT5=
EXTT6=
EXTT7=
EXTT8=
PLAYORDER=
